<?xml version="1.0" standalone="no"?>
<!DOCTYPE svg PUBLIC "-//W3C//DTD SVG 20010904//EN"
 "http://www.w3.org/TR/2001/REC-SVG-20010904/DTD/svg10.dtd">
<svg version="1.0" xmlns="http://www.w3.org/2000/svg"
 width="6905.000000pt" height="6905.000000pt" viewBox="0 0 6905.000000 6905.000000"
 preserveAspectRatio="xMidYMid meet">
<metadata>
Created by potrace 1.14, written by Peter Selinger 2001-2017
</metadata>
<g transform="translate(0.000000,6905.000000) scale(0.100000,-0.100000)"
fill="#000000" stroke="none">
<path d="M49036 68182 c2 -477 5 -1481 8 -2232 3 -751 8 -2083 12 -2960 3
-877 7 -1995 9 -2485 2 -489 4 -1272 6 -1739 2 -591 6 -849 13 -851 6 -2 70
-7 141 -10 139 -7 172 -9 250 -19 28 -3 73 -8 100 -11 106 -11 146 -17 355
-52 118 -19 227 -37 241 -39 14 -3 104 -23 200 -45 96 -21 184 -42 195 -44 21
-5 204 -52 369 -96 44 -12 84 -25 90 -30 5 -5 16 -9 25 -9 22 0 341 -105 530
-174 156 -58 372 -145 488 -198 34 -15 64 -28 66 -28 7 0 193 -88 339 -161
372 -185 712 -383 1057 -617 117 -79 461 -334 540 -398 172 -143 292 -244 329
-278 25 -23 72 -66 105 -96 95 -86 248 -235 365 -354 147 -152 145 -150 241
-256 47 -52 89 -100 95 -106 103 -111 398 -483 542 -684 93 -130 290 -421 337
-500 15 -25 45 -74 68 -110 228 -366 515 -922 711 -1385 108 -255 330 -837
343 -900 1 -5 23 -73 49 -150 38 -117 147 -479 161 -534 2 -9 13 -50 25 -91
18 -66 32 -119 44 -170 2 -8 19 -78 39 -155 19 -77 44 -183 56 -235 12 -52 24
-102 26 -110 14 -59 124 -615 129 -654 3 -27 8 -52 9 -55 2 -3 7 -28 10 -56 4
-27 9 -57 11 -65 2 -8 6 -33 10 -55 3 -22 12 -78 20 -125 7 -47 16 -107 20
-135 3 -27 8 -57 10 -65 3 -14 10 -60 21 -150 2 -19 6 -53 10 -75 3 -22 7 -51
9 -65 2 -14 7 -50 10 -80 3 -30 8 -68 10 -85 8 -66 15 -122 20 -170 3 -27 7
-72 10 -100 7 -65 14 -137 20 -205 3 -30 7 -77 10 -105 3 -27 7 -79 10 -115 7
-105 15 -202 20 -255 2 -27 7 -93 10 -145 10 -148 13 -190 19 -265 3 -38 8
-115 11 -170 3 -55 8 -127 10 -160 2 -33 7 -109 10 -170 3 -60 8 -137 10 -170
2 -33 7 -114 10 -180 3 -66 8 -154 10 -195 3 -41 7 -127 10 -190 3 -63 7 -144
10 -180 2 -36 6 -130 9 -210 3 -80 8 -190 11 -245 13 -269 17 -373 30 -710 3
-77 7 -194 10 -260 3 -66 8 -178 10 -248 2 -70 7 -196 10 -280 7 -206 14 -406
20 -627 3 -102 8 -246 10 -321 7 -206 15 -482 20 -694 3 -104 7 -278 10 -385
3 -107 7 -303 10 -435 3 -132 7 -334 10 -450 8 -344 24 -1305 30 -1750 16
-1146 19 -1755 19 -3380 1 -1579 -5 -2501 -19 -3395 -10 -664 -16 -1013 -20
-1175 -15 -693 -32 -1359 -40 -1605 -3 -80 -7 -217 -10 -305 -9 -279 -15 -476
-20 -605 -3 -69 -7 -195 -10 -280 -3 -85 -8 -204 -10 -265 -3 -60 -7 -171 -10
-245 -3 -74 -7 -184 -10 -245 -3 -60 -8 -164 -10 -230 -3 -66 -7 -160 -10
-210 -4 -84 -8 -172 -20 -420 -2 -55 -7 -140 -10 -190 -3 -49 -7 -137 -10
-195 -3 -58 -7 -139 -10 -180 -2 -41 -7 -122 -10 -180 -3 -58 -8 -136 -10
-175 -2 -38 -7 -115 -10 -170 -3 -55 -8 -127 -10 -160 -3 -33 -7 -103 -10
-155 -3 -52 -7 -122 -9 -155 -3 -33 -7 -100 -11 -150 -3 -49 -7 -115 -10 -145
-2 -30 -7 -100 -10 -155 -4 -55 -8 -120 -10 -145 -2 -25 -6 -85 -9 -135 -4
-49 -8 -110 -11 -135 -2 -25 -7 -81 -10 -125 -7 -100 -15 -197 -20 -255 -2
-25 -7 -83 -11 -130 -3 -47 -7 -98 -9 -115 -1 -16 -5 -70 -9 -120 -4 -49 -9
-106 -11 -125 -2 -19 -7 -69 -10 -110 -4 -41 -8 -86 -10 -100 -2 -14 -6 -63
-10 -110 -4 -47 -8 -101 -11 -120 -2 -19 -6 -62 -9 -95 -3 -33 -7 -78 -10
-100 -2 -22 -7 -67 -10 -100 -3 -33 -10 -100 -15 -150 -6 -49 -12 -115 -15
-145 -3 -30 -7 -71 -10 -90 -3 -19 -7 -60 -9 -91 -3 -30 -8 -77 -11 -105 -3
-27 -10 -83 -15 -124 -9 -72 -18 -149 -25 -216 -2 -18 -8 -67 -14 -110 -6 -44
-13 -106 -16 -139 -4 -33 -8 -67 -10 -75 -2 -8 -7 -42 -10 -75 -4 -33 -11 -89
-16 -125 -6 -36 -12 -81 -15 -100 -4 -33 -8 -62 -20 -150 -3 -19 -11 -75 -19
-125 -8 -49 -17 -112 -20 -140 -3 -27 -10 -72 -15 -100 -6 -27 -12 -66 -14
-85 -2 -19 -9 -62 -15 -95 -5 -33 -13 -78 -16 -99 -3 -21 -7 -48 -10 -60 -2
-12 -7 -37 -9 -56 -3 -19 -10 -57 -15 -85 -6 -27 -13 -67 -16 -89 -3 -21 -14
-82 -25 -135 -10 -53 -35 -179 -55 -281 -20 -102 -50 -243 -66 -315 -17 -71
-32 -137 -34 -147 -13 -61 -95 -360 -136 -497 -79 -262 -172 -526 -262 -746
-25 -60 -53 -128 -62 -150 -20 -51 -23 -58 -84 -189 -28 -59 -51 -110 -51
-113 0 -10 -175 -351 -242 -472 -18 -31 -36 -65 -42 -76 -102 -189 -380 -617
-533 -820 -30 -38 -63 -83 -76 -100 -52 -68 -223 -282 -242 -301 -11 -12 -29
-32 -40 -46 -24 -30 -117 -137 -195 -222 -67 -74 -381 -388 -471 -471 -298
-276 -603 -516 -1004 -790 -148 -101 -436 -277 -574 -351 -24 -13 -49 -28 -55
-33 -6 -5 -122 -65 -256 -133 -202 -102 -383 -186 -655 -303 -16 -7 -104 -41
-195 -75 -91 -34 -174 -66 -185 -70 -130 -54 -772 -247 -885 -266 -14 -3 -38
-9 -55 -14 -16 -4 -66 -16 -110 -26 -44 -10 -84 -19 -90 -20 -22 -5 -221 -46
-240 -49 -31 -6 -148 -27 -170 -30 -98 -17 -237 -38 -265 -41 -19 -1 -48 -5
-65 -8 -63 -11 -120 -18 -250 -31 -33 -3 -73 -8 -90 -10 -16 -2 -70 -7 -120
-10 -49 -4 -106 -8 -125 -10 -250 -26 -1063 -26 -1340 0 -19 1 -73 6 -120 10
-47 4 -98 8 -115 10 -16 1 -66 6 -110 10 -44 4 -89 9 -100 11 -11 2 -38 6 -60
9 -88 10 -156 19 -210 28 -16 3 -77 13 -135 22 -58 9 -136 23 -175 30 -38 8
-90 17 -115 20 -24 4 -47 8 -51 10 -3 2 -21 7 -40 10 -19 3 -54 11 -79 16 -25
6 -56 13 -70 15 -149 29 -620 158 -850 234 -193 64 -494 173 -575 210 -11 5
-95 40 -187 79 -138 58 -374 167 -488 225 -142 72 -311 164 -439 238 -48 28
-99 58 -116 68 -16 9 -90 55 -163 101 -74 46 -148 93 -165 104 -41 25 -400
276 -407 284 -3 3 -61 49 -130 101 -69 52 -130 99 -136 105 -6 5 -25 21 -43
35 -18 14 -42 33 -54 43 -12 10 -44 37 -72 60 -27 23 -68 58 -90 78 -22 19
-58 51 -79 70 -110 96 -179 162 -381 364 -121 121 -254 258 -295 304 -41 47
-80 89 -86 95 -8 9 -252 300 -297 356 -20 25 -190 249 -253 335 -65 88 -344
502 -344 511 0 3 -18 32 -40 65 -22 33 -40 62 -40 65 0 2 -19 34 -42 71 -120
197 -384 699 -476 908 -22 50 -51 115 -65 145 -46 100 -173 413 -230 565 -57
152 -157 438 -161 459 -1 6 -15 49 -30 96 -15 47 -39 128 -52 180 -14 52 -27
102 -29 110 -15 54 -62 258 -79 340 -3 14 -7 36 -11 50 -5 23 -33 171 -41 215
-2 11 -12 72 -23 135 -12 63 -23 133 -26 155 -3 22 -8 58 -12 80 -9 57 -10 63
-18 130 -4 33 -8 62 -10 65 -2 3 -6 34 -10 70 -3 36 -10 90 -15 120 -5 30 -12
84 -15 120 -3 36 -8 76 -10 90 -2 14 -6 57 -10 95 -4 39 -8 84 -10 100 -6 42
-15 137 -30 320 -3 39 -8 88 -11 110 -2 22 -6 74 -9 115 -3 41 -7 102 -9 135
-3 33 -8 107 -12 165 -3 58 -8 125 -10 150 -1 25 -5 97 -9 160 -3 63 -8 144
-10 180 -4 67 -16 325 -20 440 -2 36 -6 164 -9 285 -4 121 -9 276 -11 344 -22
685 -22 2331 0 3716 9 596 18 1452 19 1909 1 477 0 519 -15 523 -10 3 -19 12
-21 21 -5 16 -344 17 -4816 17 -2646 0 -4813 -3 -4816 -5 -2 -3 -7 -36 -10
-75 -4 -38 -8 -86 -11 -105 -2 -19 -7 -57 -9 -85 -3 -27 -8 -72 -11 -100 -12
-120 -27 -274 -30 -320 -2 -27 -6 -70 -9 -95 -2 -25 -7 -81 -11 -125 -3 -44
-8 -100 -10 -125 -11 -112 -17 -180 -30 -360 -3 -36 -7 -94 -10 -130 -7 -97
-14 -205 -20 -295 -3 -44 -7 -105 -10 -135 -2 -30 -7 -109 -10 -175 -3 -66 -8
-145 -10 -175 -2 -30 -7 -120 -10 -200 -4 -80 -8 -173 -10 -207 -3 -64 -14
-361 -20 -558 -21 -694 -21 -1794 0 -2315 2 -41 6 -163 10 -270 4 -107 8 -215
10 -240 2 -25 6 -111 10 -192 4 -82 8 -169 10 -195 2 -27 6 -100 10 -163 3
-63 8 -135 10 -160 2 -25 7 -85 10 -135 6 -103 12 -182 20 -275 6 -75 12 -147
20 -245 6 -75 12 -136 20 -212 3 -27 7 -74 10 -105 2 -31 6 -74 9 -95 2 -21 8
-69 11 -108 4 -38 8 -81 10 -95 2 -14 6 -56 10 -95 5 -69 13 -136 20 -185 2
-14 7 -52 10 -85 8 -72 12 -105 19 -165 3 -25 8 -61 10 -80 2 -19 9 -73 15
-120 7 -47 14 -101 16 -120 2 -19 11 -84 20 -145 8 -60 18 -128 21 -150 2 -22
7 -51 9 -65 2 -14 7 -45 10 -70 3 -25 10 -70 15 -100 5 -30 12 -75 15 -100 3
-25 8 -57 11 -72 3 -15 7 -39 9 -55 3 -25 38 -239 50 -306 3 -15 9 -54 15 -87
6 -33 12 -72 15 -87 3 -16 10 -57 16 -93 5 -36 16 -96 24 -135 7 -38 21 -110
30 -160 27 -147 85 -446 100 -510 8 -33 23 -107 35 -165 19 -95 53 -253 97
-445 9 -38 33 -140 54 -225 21 -85 40 -166 43 -180 9 -44 14 -64 26 -110 7
-25 14 -52 16 -60 58 -247 242 -912 349 -1265 79 -261 255 -806 275 -850 4
-11 26 -74 49 -140 153 -456 459 -1245 646 -1670 7 -16 37 -84 65 -150 55
-125 127 -286 187 -415 20 -41 48 -102 63 -135 123 -270 420 -860 600 -1190
18 -33 48 -89 68 -125 19 -36 52 -94 72 -130 21 -36 48 -83 60 -105 26 -48
127 -224 140 -245 8 -13 242 -405 289 -482 90 -153 518 -806 637 -974 16 -23
76 -108 134 -190 90 -129 525 -712 572 -769 9 -11 47 -58 84 -105 77 -96 326
-402 334 -410 3 -3 52 -61 110 -130 57 -69 107 -127 110 -130 4 -3 37 -41 75
-85 38 -44 72 -82 75 -85 3 -3 41 -45 85 -95 43 -49 86 -97 95 -106 8 -8 58
-62 110 -119 287 -314 773 -800 1101 -1102 117 -107 127 -117 223 -203 43 -38
84 -75 90 -80 6 -6 61 -53 121 -105 61 -52 112 -98 115 -101 6 -6 294 -246
358 -297 22 -19 50 -41 61 -50 11 -10 34 -28 52 -42 18 -14 51 -40 73 -58 23
-18 48 -39 56 -46 9 -6 42 -32 75 -56 33 -25 62 -48 65 -51 5 -5 428 -322 475
-355 11 -8 63 -45 115 -82 239 -171 675 -463 896 -599 407 -252 706 -424 1149
-663 241 -130 1042 -520 1068 -520 3 0 43 -18 89 -39 45 -21 155 -69 243 -106
88 -37 174 -73 190 -80 17 -7 84 -34 150 -60 66 -26 134 -53 150 -60 142 -61
737 -270 1050 -370 296 -94 865 -256 977 -279 13 -3 57 -14 98 -25 87 -23 517
-121 635 -145 44 -9 91 -19 105 -22 33 -7 316 -61 355 -67 17 -3 97 -17 179
-31 185 -33 191 -33 246 -41 25 -3 56 -8 70 -10 47 -8 305 -44 355 -50 28 -3
66 -8 85 -11 19 -2 53 -7 75 -9 22 -3 60 -7 85 -10 85 -10 125 -14 190 -20 36
-3 79 -7 95 -10 40 -5 222 -21 345 -30 320 -24 469 -32 770 -41 387 -13 1030
-7 1355 11 151 8 286 17 326 20 24 2 89 6 144 10 55 3 111 8 125 10 14 2 59 7
100 10 80 6 116 9 250 24 47 6 112 13 145 16 33 4 72 8 86 11 14 2 51 6 81 9
30 3 65 7 77 10 13 2 49 7 80 10 31 4 63 8 71 10 8 2 38 7 65 10 54 7 66 9
170 25 39 6 83 13 98 15 16 2 40 6 55 9 15 3 42 8 60 11 17 3 47 7 65 10 17 3
43 8 57 10 14 3 39 7 55 10 17 2 41 7 55 10 14 3 39 8 55 10 350 61 898 187
1385 318 297 81 996 302 1180 374 8 4 17 7 20 8 3 1 18 7 33 13 16 7 32 12 35
12 13 0 580 220 657 255 16 7 102 44 190 81 88 37 197 84 243 106 46 21 85 38
87 38 1 0 56 25 121 56 66 31 148 70 184 86 153 72 569 283 720 366 25 13 74
40 110 60 705 384 1429 854 2100 1361 209 157 640 499 660 522 3 3 50 43 105
89 55 46 102 87 105 90 3 3 37 32 75 65 39 32 77 66 86 75 9 8 31 28 50 45 54
47 222 198 245 220 11 11 81 76 155 145 146 136 603 591 739 736 47 50 126
134 175 188 89 97 100 109 160 177 17 19 55 61 84 94 30 33 68 76 84 95 17 19
47 53 66 75 36 41 71 82 195 230 37 44 76 89 85 101 10 11 68 83 130 160 62
76 120 148 130 159 24 29 299 389 359 470 29 39 61 81 71 95 22 29 109 148
131 180 8 12 40 56 71 98 100 138 524 768 596 887 21 34 154 247 188 300 17
28 40 66 51 85 10 19 21 37 24 40 6 5 162 267 203 340 11 19 56 100 102 180
93 164 107 189 197 355 102 187 138 256 240 455 144 279 172 335 173 340 1 3
34 73 74 155 109 223 208 435 293 625 33 74 71 158 83 185 12 28 42 95 65 150
23 55 51 120 62 145 36 79 268 653 274 677 4 13 10 26 15 29 5 3 9 12 9 21 0
8 7 29 15 46 8 18 21 50 28 72 31 85 78 211 86 230 9 18 75 201 99 270 6 17
31 89 57 160 106 295 322 960 405 1245 12 41 25 86 30 100 9 25 158 548 166
579 3 15 15 60 64 246 28 106 121 474 125 495 2 9 14 61 28 116 24 95 38 147
42 169 2 6 31 134 65 285 34 151 63 282 65 290 2 8 17 83 35 165 17 83 33 157
34 165 2 8 13 65 25 125 11 61 23 119 25 130 20 100 72 370 80 420 4 20 5 29
31 170 8 44 17 98 20 120 3 22 8 46 10 53 3 7 7 34 10 60 4 26 15 97 25 157
11 61 22 128 25 150 4 22 17 108 30 190 13 83 26 168 29 190 3 22 8 58 11 80
4 22 12 81 20 130 14 90 19 122 31 225 3 30 7 57 9 60 2 3 6 34 9 70 4 36 8
75 10 86 2 12 7 45 11 75 3 30 10 88 15 129 14 104 22 171 25 195 9 93 17 164
20 185 2 14 7 52 10 85 3 33 8 71 11 85 2 14 7 54 10 90 3 36 7 81 9 100 2 19
7 64 10 100 3 36 8 81 10 100 2 19 6 67 10 105 3 39 7 86 10 105 2 19 7 69 10
110 3 41 8 91 10 110 2 19 7 78 10 130 4 52 9 113 11 135 2 22 6 72 9 110 3
39 7 97 10 130 3 33 7 96 10 140 3 44 7 107 10 140 7 88 21 321 30 512 12 239
14 271 20 413 10 237 13 315 20 520 13 426 17 597 30 1205 27 1291 28 4139 0
5835 -2 113 -6 383 -9 600 -4 217 -8 490 -11 605 -2 116 -7 361 -10 545 -3
184 -8 416 -10 515 -2 99 -7 306 -10 460 -3 154 -7 368 -10 475 -2 107 -7 314
-10 460 -3 146 -7 337 -10 425 -2 88 -7 297 -10 465 -3 168 -8 388 -10 490 -2
102 -7 298 -10 435 -3 138 -8 338 -10 445 -3 107 -7 308 -10 445 -2 138 -7
367 -10 510 -10 472 -15 737 -20 1015 -3 151 -7 403 -10 560 -5 283 -10 656
-20 1405 -3 215 -7 671 -10 1015 -6 738 -13 1339 -20 1575 -3 94 -7 271 -10
395 -3 124 -7 279 -10 345 -9 261 -18 513 -20 575 -2 36 -6 137 -9 225 -4 88
-9 196 -11 240 -9 161 -15 283 -20 390 -3 61 -8 146 -10 190 -3 44 -7 114 -10
155 -2 41 -7 116 -10 165 -3 50 -7 126 -10 170 -2 44 -7 109 -9 145 -3 36 -8
106 -11 155 -3 50 -8 113 -11 140 -3 28 -7 86 -9 129 -7 115 -15 217 -20 246
-2 14 -7 70 -11 125 -3 55 -8 114 -9 130 -2 17 -6 68 -10 115 -4 47 -8 99 -10
115 -1 17 -6 64 -9 105 -14 154 -26 280 -31 310 -2 14 -7 63 -10 109 -4 47 -9
94 -11 105 -2 11 -6 52 -9 91 -3 38 -7 81 -10 95 -2 14 -7 52 -10 85 -3 33 -7
76 -10 95 -2 19 -7 60 -10 90 -3 30 -8 71 -10 90 -2 19 -7 60 -10 90 -4 30 -8
66 -10 80 -2 14 -6 52 -10 85 -8 70 -12 103 -25 205 -5 41 -12 98 -15 125 -4
28 -8 61 -10 75 -3 14 -7 48 -10 75 -3 28 -8 61 -10 75 -8 43 -13 83 -20 150
-4 36 -9 74 -11 85 -7 35 -12 69 -18 120 -4 28 -9 61 -11 75 -3 14 -7 41 -9
60 -3 19 -7 51 -10 70 -3 19 -18 112 -32 205 -14 94 -30 199 -36 235 -5 36
-11 74 -13 85 -2 11 -6 34 -9 50 -3 17 -14 86 -25 155 -12 69 -23 135 -25 146
-2 12 -7 39 -10 60 -4 22 -13 75 -21 119 -8 44 -16 91 -19 105 -2 14 -7 36
-10 50 -3 14 -8 41 -10 61 -3 20 -8 42 -10 50 -3 8 -8 31 -11 52 -3 21 -12 71
-20 110 -8 40 -26 133 -40 207 -14 74 -27 144 -29 155 -2 11 -16 76 -30 145
-15 69 -28 134 -30 145 -12 59 -70 321 -86 390 -16 69 -55 239 -65 285 -2 8
-10 42 -18 75 -9 33 -18 71 -21 85 -3 14 -21 90 -41 170 -20 80 -39 154 -41
165 -2 11 -27 106 -54 210 -28 105 -52 197 -54 205 -5 19 -80 287 -112 400
-13 47 -26 92 -28 100 -2 8 -12 42 -22 75 -10 33 -19 65 -20 70 -11 43 -162
533 -174 565 -6 14 -12 34 -14 45 -11 50 -280 824 -342 982 -13 34 -24 64 -24
68 0 4 -6 21 -14 38 -7 18 -28 70 -46 117 -17 47 -36 94 -41 105 -4 11 -25 63
-45 115 -36 94 -114 287 -139 345 -7 17 -38 89 -68 160 -65 154 -153 354 -213
483 -24 52 -44 95 -44 97 0 6 -121 259 -231 480 -259 524 -449 871 -756 1384
-21 35 -47 79 -58 98 -111 190 -479 744 -679 1023 -136 190 -314 430 -326 440
-3 3 -22 28 -41 55 -20 28 -45 61 -57 75 -12 14 -70 86 -129 160 -170 214
-342 419 -472 565 -20 23 -67 76 -106 120 -235 265 -486 527 -781 815 -146
142 -314 300 -454 426 -30 27 -75 68 -100 90 -25 23 -63 57 -85 75 -22 19 -42
36 -45 39 -26 26 -359 305 -438 368 -19 15 -40 32 -46 37 -13 12 -311 245
-371 290 -22 16 -47 35 -55 42 -16 12 -104 78 -242 179 -267 196 -903 624
-927 624 -5 0 -11 4 -13 8 -1 5 -34 28 -73 51 -38 23 -147 89 -242 146 -183
111 -520 306 -643 372 -41 22 -104 56 -140 75 -186 101 -244 131 -475 247
-138 69 -304 152 -370 183 -203 96 -356 168 -360 168 -2 0 -32 13 -67 29 -124
57 -179 81 -241 107 -34 14 -84 36 -112 49 -141 64 -677 279 -920 369 -55 21
-109 41 -120 46 -72 30 -387 140 -680 239 -273 92 -339 114 -675 216 -102 31
-214 65 -250 77 -36 11 -72 22 -80 23 -8 2 -118 33 -245 68 -126 35 -241 68
-255 71 -105 29 -661 172 -700 180 -14 3 -122 28 -240 56 -118 28 -224 52
-235 54 -11 2 -38 8 -60 14 -22 6 -85 20 -140 31 -55 11 -154 32 -220 46 -66
14 -199 42 -295 61 -96 19 -184 36 -195 39 -61 12 -134 26 -160 30 -16 3 -77
14 -135 25 -58 11 -118 22 -135 25 -47 8 -547 93 -580 98 -16 3 -57 10 -90 15
-33 6 -80 14 -105 17 -25 3 -70 10 -100 15 -30 5 -71 11 -91 14 l-36 5 3 -867z"/>
<path d="M19797 67664 c-1 -1 -112 -5 -247 -8 -135 -4 -263 -9 -285 -11 -22
-2 -98 -6 -170 -10 -71 -4 -150 -8 -175 -10 -123 -9 -209 -16 -250 -20 -25 -3
-79 -7 -120 -10 -41 -3 -88 -7 -105 -10 -16 -2 -59 -7 -95 -10 -36 -3 -78 -8
-95 -10 -16 -2 -59 -7 -95 -10 -36 -4 -72 -8 -80 -10 -8 -1 -40 -5 -70 -9 -99
-12 -124 -15 -240 -31 -63 -9 -126 -18 -140 -20 -45 -8 -234 -37 -265 -41 -16
-2 -37 -6 -45 -9 -8 -2 -37 -7 -65 -10 -27 -4 -58 -9 -67 -11 -10 -3 -29 -7
-43 -10 -91 -15 -144 -24 -167 -29 -70 -13 -84 -16 -98 -20 -8 -2 -31 -7 -50
-10 -19 -3 -53 -10 -75 -15 -22 -5 -56 -12 -75 -15 -19 -3 -82 -17 -140 -30
-58 -13 -120 -27 -139 -30 -19 -3 -37 -8 -41 -10 -4 -2 -22 -7 -41 -10 -50 -9
-678 -170 -794 -204 -55 -16 -156 -46 -225 -66 -132 -39 -344 -106 -495 -157
-418 -142 -524 -181 -950 -351 -110 -44 -218 -88 -240 -98 -22 -10 -69 -30
-105 -44 -36 -15 -98 -42 -138 -61 -41 -19 -75 -34 -77 -34 -4 0 -70 -30 -260
-118 -260 -120 -782 -387 -1045 -534 -74 -42 -155 -87 -180 -101 -25 -14 -103
-59 -174 -101 -70 -42 -132 -76 -137 -76 -5 0 -9 -4 -9 -8 0 -4 -19 -18 -42
-30 -48 -25 -129 -74 -233 -142 -39 -25 -74 -47 -80 -50 -110 -55 -942 -632
-1178 -818 -51 -39 -47 -36 -127 -97 -73 -55 -412 -325 -420 -334 -3 -3 -27
-24 -55 -46 -55 -44 -92 -74 -109 -90 -6 -6 -38 -33 -71 -60 -33 -28 -76 -64
-95 -81 -19 -17 -80 -71 -135 -119 -435 -382 -966 -900 -1345 -1312 -252 -273
-511 -570 -719 -823 -56 -69 -110 -134 -119 -145 -10 -11 -61 -76 -115 -145
-55 -69 -106 -134 -115 -145 -10 -11 -30 -38 -46 -60 -17 -22 -33 -42 -36 -45
-3 -3 -17 -21 -30 -40 -13 -19 -27 -37 -30 -40 -3 -3 -25 -32 -50 -65 -24 -33
-48 -64 -53 -70 -4 -5 -37 -50 -73 -100 -36 -49 -75 -101 -85 -115 -33 -44
-175 -244 -230 -326 -29 -44 -56 -81 -60 -84 -9 -8 -358 -533 -430 -650 -35
-56 -83 -132 -107 -168 -23 -37 -51 -83 -62 -102 -11 -19 -28 -47 -38 -62 -9
-15 -68 -114 -131 -220 -62 -106 -121 -204 -130 -218 -8 -14 -21 -34 -26 -45
-6 -11 -63 -112 -127 -225 -117 -208 -141 -253 -288 -530 -131 -246 -442 -877
-530 -1075 -12 -27 -37 -81 -55 -120 -18 -38 -44 -95 -58 -125 -40 -88 -151
-344 -207 -480 -29 -69 -60 -143 -70 -165 -69 -155 -344 -865 -425 -1095 -13
-36 -42 -117 -65 -180 -43 -120 -268 -786 -275 -817 -3 -10 -34 -112 -70 -228
-80 -254 -244 -824 -305 -1055 -12 -47 -31 -114 -41 -150 -22 -78 -152 -607
-208 -845 -47 -202 -169 -765 -185 -855 -2 -14 -9 -46 -15 -73 -6 -26 -14 -64
-17 -83 -8 -48 -12 -70 -23 -124 -5 -25 -17 -83 -26 -130 -8 -47 -17 -94 -19
-105 -12 -62 -66 -365 -70 -390 -3 -16 -12 -70 -21 -120 -9 -49 -18 -106 -21
-125 -3 -19 -12 -73 -19 -120 -18 -105 -25 -151 -40 -252 -4 -33 -15 -99 -20
-128 -2 -14 -10 -63 -20 -130 -3 -14 -7 -45 -10 -70 -3 -25 -12 -92 -20 -150
-9 -58 -17 -118 -20 -135 -2 -16 -11 -86 -20 -155 -9 -69 -18 -136 -20 -150
-2 -14 -7 -54 -10 -90 -4 -35 -9 -73 -11 -85 -2 -11 -6 -44 -10 -73 -3 -29 -7
-61 -9 -70 -1 -9 -6 -51 -10 -92 -3 -41 -8 -82 -10 -90 -2 -8 -7 -44 -10 -80
-3 -36 -8 -81 -10 -100 -2 -19 -6 -62 -10 -95 -3 -33 -8 -78 -10 -100 -21
-191 -24 -225 -31 -300 -3 -38 -7 -90 -9 -114 -2 -24 -6 -64 -9 -90 -3 -25 -8
-77 -11 -116 -3 -38 -8 -90 -10 -115 -2 -25 -6 -83 -10 -130 -3 -47 -8 -105
-10 -130 -2 -25 -7 -83 -10 -130 -3 -47 -8 -110 -10 -140 -2 -30 -7 -95 -10
-145 -3 -49 -8 -121 -10 -160 -5 -66 -8 -125 -20 -340 -19 -352 -31 -625 -40
-950 -4 -121 -8 -276 -10 -345 -4 -121 -12 -491 -20 -865 -15 -713 -20 -1320
-20 -2725 0 -1728 9 -2667 40 -4345 3 -132 7 -368 10 -525 3 -157 7 -379 10
-495 2 -115 7 -331 10 -480 3 -148 7 -360 10 -470 2 -110 7 -315 10 -455 3
-140 7 -345 10 -455 6 -242 13 -580 20 -930 3 -143 7 -343 10 -445 3 -102 7
-300 10 -440 3 -140 7 -347 10 -460 7 -310 20 -935 30 -1510 2 -151 7 -403 10
-560 13 -754 24 -1627 30 -2465 7 -980 17 -1539 39 -2255 4 -102 8 -239 11
-305 3 -66 7 -183 10 -260 9 -242 17 -408 30 -655 2 -47 7 -139 10 -205 6
-132 13 -246 20 -345 2 -36 7 -117 10 -180 3 -63 8 -137 10 -165 2 -27 7 -90
10 -140 3 -49 8 -117 10 -150 3 -33 7 -96 10 -140 3 -44 7 -107 10 -140 11
-128 16 -182 20 -245 3 -36 7 -94 10 -130 3 -36 8 -94 11 -130 2 -36 7 -85 9
-110 11 -103 15 -149 20 -215 3 -38 7 -86 10 -105 2 -19 7 -66 10 -105 3 -38
7 -86 10 -105 2 -19 7 -66 11 -105 3 -38 7 -81 9 -95 1 -14 6 -59 10 -100 4
-41 8 -82 10 -90 2 -8 6 -53 10 -100 4 -47 8 -87 10 -90 1 -3 6 -39 10 -80 7
-75 8 -91 20 -185 13 -102 15 -121 20 -170 3 -27 8 -61 10 -75 2 -14 7 -47 10
-75 8 -70 16 -136 20 -165 2 -14 7 -52 11 -85 3 -33 7 -67 9 -75 1 -8 6 -40
10 -70 3 -30 8 -66 10 -80 2 -14 6 -45 10 -70 3 -25 8 -56 10 -70 2 -14 7 -45
10 -70 4 -25 8 -56 10 -70 3 -14 7 -47 10 -75 3 -27 10 -75 15 -105 5 -30 12
-73 15 -95 6 -44 12 -83 20 -130 3 -16 8 -50 11 -75 3 -25 7 -52 9 -60 3 -8 7
-33 10 -55 6 -44 32 -203 41 -249 3 -16 11 -70 19 -120 8 -50 17 -104 20 -121
3 -16 7 -43 10 -60 5 -31 7 -40 20 -110 4 -22 9 -51 11 -65 15 -84 71 -381
101 -530 19 -96 37 -186 39 -200 8 -43 104 -503 114 -545 15 -63 36 -155 85
-370 25 -110 55 -236 66 -280 12 -44 23 -89 25 -100 6 -30 103 -414 119 -470
8 -27 40 -142 71 -255 56 -205 79 -287 109 -390 9 -30 18 -62 20 -70 6 -26 74
-249 126 -415 97 -311 331 -1002 369 -1090 5 -11 38 -99 73 -195 64 -171 119
-315 136 -355 5 -11 21 -51 36 -90 27 -72 37 -95 74 -177 11 -26 21 -51 21
-54 0 -3 6 -20 14 -37 8 -18 31 -72 52 -122 44 -107 172 -399 213 -487 16 -35
45 -99 66 -143 105 -230 143 -307 302 -622 95 -189 179 -353 186 -365 8 -13
33 -58 56 -101 38 -71 110 -202 166 -302 278 -496 665 -1104 1008 -1583 113
-159 336 -459 394 -532 6 -8 49 -62 95 -120 46 -58 88 -112 95 -120 7 -8 34
-42 60 -75 26 -33 53 -64 59 -70 6 -5 28 -32 50 -60 21 -27 41 -52 44 -55 3
-3 28 -32 55 -65 28 -33 55 -64 61 -70 5 -5 35 -39 65 -75 30 -35 61 -72 69
-80 8 -9 49 -54 90 -101 234 -263 801 -842 1026 -1049 184 -169 294 -268 429
-385 175 -153 201 -174 270 -230 28 -22 56 -46 64 -53 17 -17 333 -269 406
-325 27 -21 111 -84 185 -140 74 -56 141 -107 148 -114 7 -7 17 -13 21 -13 4
0 16 -8 27 -18 11 -9 33 -26 49 -38 282 -199 384 -269 585 -403 131 -88 271
-179 310 -203 39 -23 88 -54 110 -68 21 -14 74 -47 117 -73 43 -26 85 -52 93
-57 100 -62 533 -312 685 -395 39 -20 93 -50 120 -65 156 -85 916 -470 929
-470 2 0 52 -22 109 -49 118 -57 220 -104 227 -106 3 0 28 -11 55 -24 302
-137 1058 -449 1235 -508 25 -8 74 -27 110 -40 271 -106 1096 -383 1395 -469
73 -22 74 -22 145 -43 170 -51 292 -86 490 -140 201 -56 436 -119 470 -126 8
-2 103 -26 210 -53 107 -27 249 -61 315 -76 66 -15 134 -32 150 -37 17 -4 95
-23 175 -40 80 -17 183 -40 230 -50 47 -11 97 -21 112 -24 14 -3 77 -16 140
-29 126 -28 504 -102 558 -111 19 -3 55 -10 80 -15 44 -10 222 -43 290 -54 19
-3 46 -8 60 -11 37 -7 560 -95 595 -100 76 -10 205 -30 256 -40 l36 -7 -3 814
c-2 447 -6 1517 -9 2378 -7 1909 -12 3186 -21 5575 -8 2380 -8 2363 -14 2368
-3 2 -63 7 -135 11 -133 7 -188 11 -285 23 -30 3 -64 7 -75 8 -27 3 -109 13
-165 20 -70 10 -277 44 -360 60 -41 8 -91 17 -110 20 -19 3 -51 10 -70 15 -19
5 -69 16 -110 25 -41 9 -93 21 -115 26 -22 5 -49 11 -60 14 -19 3 -145 36
-270 70 -714 192 -1587 560 -2175 915 -8 5 -69 42 -135 81 -114 69 -319 201
-470 306 -75 51 -387 282 -395 292 -3 3 -48 40 -100 82 -53 42 -102 83 -110
90 -8 8 -44 39 -80 69 -195 164 -535 489 -700 670 -18 19 -53 58 -79 85 -89
97 -326 374 -404 475 -7 8 -28 35 -47 60 -19 25 -37 47 -40 50 -7 6 -139 186
-165 224 -11 16 -29 41 -40 56 -11 15 -38 54 -60 86 -22 32 -42 61 -45 64 -3
3 -36 52 -74 110 -38 58 -77 117 -87 132 -11 15 -19 32 -19 38 0 6 -7 13 -15
16 -8 4 -15 10 -15 14 0 5 -38 71 -84 147 -209 345 -418 744 -604 1154 -47
103 -172 396 -172 403 0 3 -9 25 -19 49 -54 119 -221 584 -295 822 -26 83 -52
161 -56 175 -11 29 -80 267 -85 291 -2 9 -13 48 -25 87 -19 66 -146 576 -169
682 -27 120 -71 328 -75 355 -3 17 -10 55 -16 85 -12 57 -14 69 -31 160 -13
74 -37 208 -42 245 -3 17 -10 57 -16 90 -6 33 -13 76 -15 95 -3 19 -7 49 -10
65 -2 17 -10 66 -16 110 -6 44 -14 94 -16 110 -15 102 -43 320 -49 385 -3 36
-8 76 -10 90 -10 62 -41 379 -60 610 -4 41 -8 95 -10 120 -9 99 -16 199 -20
275 -3 44 -7 109 -10 145 -7 73 -11 138 -20 285 -3 55 -8 125 -10 155 -3 30
-7 102 -10 160 -3 58 -7 141 -10 185 -12 205 -16 276 -20 355 -8 163 -16 326
-20 415 -3 50 -7 135 -10 190 -2 55 -7 161 -10 235 -3 74 -8 176 -10 225 -7
137 -26 602 -40 1000 -2 72 -7 193 -9 270 -3 77 -8 219 -11 315 -3 96 -8 229
-10 295 -2 66 -7 212 -10 325 -3 113 -8 268 -10 345 -2 77 -7 244 -10 370 -3
127 -8 302 -10 390 -3 88 -7 273 -10 410 -3 138 -7 349 -10 470 -16 728 -29
1524 -42 2665 -10 851 -10 4151 0 4970 12 975 22 1634 32 2071 3 112 7 312 10
444 8 352 22 917 30 1160 3 88 7 232 10 320 6 200 16 475 30 870 5 137 13 336
20 510 3 66 7 174 10 240 7 161 15 342 20 440 2 44 7 143 10 220 3 77 8 169
10 205 2 36 7 119 10 185 15 300 23 458 30 560 2 33 6 114 10 180 3 66 8 143
10 170 2 28 7 95 10 150 9 156 24 395 30 475 2 30 7 100 10 155 4 55 8 119 10
141 4 46 14 172 20 274 3 36 7 97 10 135 3 39 7 97 10 130 11 145 23 301 30
375 2 19 6 73 10 120 4 47 8 103 10 125 2 22 7 72 10 110 3 39 7 88 10 110 2
22 7 72 10 110 3 39 8 86 10 105 2 19 7 69 10 110 4 41 8 89 10 105 1 17 6 64
9 105 4 41 8 86 11 100 2 14 7 63 11 110 3 47 8 93 9 102 2 9 6 43 10 75 3 32
8 83 11 113 3 30 7 66 9 80 2 14 6 54 10 90 4 36 8 76 10 90 2 14 11 88 20
165 15 132 19 169 30 255 5 36 9 66 20 155 15 118 26 203 29 221 2 10 7 46 10
79 4 33 9 67 11 75 2 8 7 42 11 75 3 33 8 69 10 80 2 11 5 38 9 60 3 22 7 51
10 65 6 30 12 70 19 130 3 25 8 55 10 66 2 12 7 39 10 60 3 22 8 50 11 64 2
14 7 43 10 65 3 22 12 76 20 120 8 44 17 96 20 115 3 19 12 71 20 115 8 44 17
96 20 115 3 19 8 42 11 51 2 10 6 30 9 45 2 16 9 54 15 84 6 30 14 69 17 85 2
17 11 62 20 100 8 39 16 79 19 90 2 11 15 70 28 130 271 1200 724 2225 1399
3165 81 113 279 370 310 402 7 7 28 33 47 58 36 46 44 54 201 230 181 203 506
519 729 710 47 40 99 84 115 99 275 239 782 588 1209 833 297 170 913 466
1066 513 14 4 30 11 35 15 6 4 75 31 155 60 80 28 154 56 165 61 112 49 784
246 935 275 14 3 33 7 42 10 9 3 25 7 35 9 10 2 72 15 138 29 153 32 357 70
495 92 19 3 46 7 60 10 14 2 46 6 71 9 25 3 54 7 65 9 10 2 48 7 84 11 36 4
72 8 80 10 8 2 51 6 95 10 44 4 88 9 97 11 10 1 59 6 110 9 51 4 109 9 128 10
260 26 1120 26 1340 1 19 -3 76 -7 126 -11 50 -3 102 -7 115 -10 13 -2 53 -6
89 -9 110 -11 349 -41 394 -51 12 -2 41 -7 66 -10 43 -5 64 -8 120 -20 14 -3
43 -7 65 -11 34 -4 308 -58 355 -69 8 -2 38 -9 65 -15 28 -6 61 -14 75 -16 14
-3 102 -25 195 -49 147 -38 250 -68 570 -165 33 -10 116 -39 185 -65 69 -25
132 -47 140 -49 17 -4 294 -114 385 -153 102 -43 118 -50 180 -78 77 -35 399
-190 445 -214 19 -11 52 -29 73 -40 22 -12 78 -42 125 -68 48 -25 92 -49 97
-53 6 -4 27 -17 48 -29 92 -52 103 -59 292 -174 42 -26 352 -232 390 -259 100
-72 290 -213 295 -218 3 -3 23 -19 45 -35 51 -38 48 -35 195 -157 119 -98 155
-128 204 -173 13 -11 63 -56 112 -100 97 -86 472 -459 569 -566 361 -395 787
-956 1020 -1343 17 -28 39 -65 50 -82 41 -68 154 -261 180 -309 15 -27 31 -54
35 -60 46 -64 332 -646 416 -847 14 -35 34 -81 44 -103 22 -48 113 -274 147
-365 33 -90 104 -283 107 -295 2 -5 6 -17 9 -25 50 -122 198 -641 222 -778 3
-19 14 -71 25 -115 15 -66 53 -269 85 -452 11 -65 34 -212 40 -255 3 -25 8
-56 10 -70 2 -14 7 -43 10 -65 2 -22 7 -56 10 -75 2 -19 7 -55 9 -80 3 -25 7
-61 10 -80 6 -38 14 -111 21 -175 2 -22 7 -62 9 -90 3 -27 8 -77 11 -110 3
-33 8 -76 10 -95 8 -63 14 -134 20 -215 4 -44 8 -96 10 -115 2 -19 6 -80 10
-135 4 -55 8 -107 10 -115 2 -8 6 -71 10 -140 3 -69 8 -145 10 -170 2 -25 6
-99 10 -165 4 -66 8 -151 10 -190 3 -38 7 -131 10 -205 3 -74 8 -178 10 -230
4 -91 14 -424 20 -655 22 -848 22 -2012 0 -3645 -15 -1109 -18 -1398 -19
-1888 l-2 -563 23 -27 22 -27 4808 1 c2644 1 4811 2 4814 3 3 0 6 7 6 14 1 6
4 37 7 67 4 30 9 78 11 105 5 47 11 105 20 185 2 19 7 69 11 110 9 98 10 112
18 195 9 85 12 125 20 230 4 44 9 94 11 110 2 17 7 73 10 125 4 52 8 111 10
130 2 19 7 76 10 125 4 50 8 106 9 125 3 32 10 125 22 305 3 39 7 104 9 145 3
41 7 111 10 155 2 44 7 125 10 180 2 55 7 150 11 210 7 145 19 448 29 740 21
613 21 1845 0 2320 -2 44 -6 159 -10 255 -3 96 -8 209 -10 250 -5 92 -16 302
-20 390 -2 36 -6 110 -10 165 -3 55 -8 132 -11 170 -2 39 -6 95 -9 125 -2 30
-7 91 -10 135 -3 44 -8 105 -10 135 -3 30 -7 89 -10 130 -3 41 -7 91 -10 110
-2 19 -7 71 -10 115 -3 44 -8 101 -10 128 -9 94 -16 153 -20 187 -2 19 -7 67
-10 105 -3 39 -8 81 -10 95 -2 14 -6 57 -10 95 -4 39 -9 82 -10 96 -2 15 -7
54 -10 88 -4 34 -8 70 -10 80 -2 9 -6 47 -9 83 -4 37 -8 75 -10 85 -2 10 -7
45 -11 78 -4 33 -9 76 -11 95 -2 19 -6 51 -9 70 -18 139 -26 198 -29 220 -3
14 -7 48 -11 75 -3 28 -8 59 -10 70 -2 11 -7 43 -10 70 -3 28 -10 75 -15 105
-5 30 -12 75 -15 100 -3 25 -10 70 -15 100 -5 30 -12 73 -15 95 -2 22 -7 50
-9 61 -2 12 -7 39 -10 60 -4 22 -11 66 -16 99 -5 33 -12 78 -16 100 -3 22 -7
42 -9 45 -2 3 -7 33 -10 65 -4 33 -9 63 -12 67 -2 4 -6 20 -7 35 -6 43 -93
516 -110 598 -9 39 -47 230 -52 255 -2 14 -9 45 -14 70 -6 25 -12 54 -15 65
-2 11 -15 74 -30 140 -15 66 -29 134 -31 150 -3 17 -7 37 -10 45 -3 8 -8 26
-11 40 -2 14 -22 102 -44 195 -22 94 -42 181 -45 195 -3 14 -7 32 -10 40 -3 8
-8 26 -10 39 -9 45 -136 538 -180 701 -25 91 -48 172 -50 180 -2 8 -12 47 -23
85 -17 60 -40 137 -136 465 -14 47 -83 270 -133 430 -90 285 -333 983 -378
1088 -8 18 -14 37 -14 43 0 6 -6 25 -14 42 -8 18 -40 100 -71 182 -32 83 -63
164 -70 180 -7 17 -43 107 -80 200 -38 94 -76 188 -85 210 -10 22 -34 81 -54
130 -20 50 -43 104 -51 120 -8 17 -29 64 -46 105 -17 41 -43 100 -56 130 -14
30 -49 109 -78 175 -29 66 -74 165 -100 220 -25 55 -63 136 -83 180 -52 113
-420 849 -488 975 -197 368 -353 645 -529 940 -148 249 -172 288 -228 377 -29
46 -81 129 -116 185 -90 144 -420 638 -526 788 -48 69 -108 154 -133 190 -65
92 -304 416 -380 513 -39 51 -36 48 -97 127 -105 137 -404 508 -509 630 -11
14 -57 68 -101 120 -44 52 -85 100 -90 106 -6 6 -35 39 -65 74 -30 35 -77 88
-105 118 -27 30 -58 64 -68 76 -52 60 -268 294 -387 420 -235 248 -718 722
-934 919 -66 60 -194 176 -235 213 -25 21 -54 48 -66 59 -11 11 -34 31 -50 45
-17 14 -93 79 -170 145 -77 66 -151 129 -164 140 -14 11 -41 34 -60 51 -20 17
-99 81 -176 143 -227 182 -292 233 -409 321 -48 36 -92 70 -99 75 -18 15 -277
208 -303 225 -12 8 -48 34 -80 57 -381 274 -863 590 -1284 840 -178 106 -361
212 -445 258 -187 102 -295 161 -385 209 -112 60 -671 338 -755 376 -27 12
-87 39 -131 60 -282 132 -1116 480 -1150 480 -3 0 -20 6 -37 14 -211 93 -1082
374 -1557 502 -128 35 -323 86 -339 89 -9 2 -90 21 -181 43 -159 38 -294 69
-335 77 -11 2 -40 8 -65 14 -48 10 -82 18 -127 26 -16 3 -50 10 -78 16 -27 6
-61 13 -75 15 -14 2 -59 11 -100 19 -41 8 -88 17 -105 20 -16 2 -41 7 -55 10
-24 5 -292 51 -355 61 -16 2 -41 6 -55 9 -14 3 -47 7 -75 10 -27 3 -62 8 -77
11 -15 3 -42 7 -60 9 -18 3 -64 9 -103 14 -38 6 -90 13 -115 16 -25 3 -56 7
-70 10 -14 2 -56 7 -95 10 -38 3 -77 8 -85 10 -8 2 -46 6 -85 10 -38 3 -81 8
-95 10 -14 2 -59 7 -100 10 -41 3 -91 7 -110 10 -35 4 -106 10 -235 20 -38 3
-97 7 -130 10 -57 5 -154 10 -340 20 -263 14 -1107 28 -1118 19z"/>
</g>
</svg>
